<?xml version="1.0" standalone="no"?>
<!DOCTYPE svg PUBLIC "-//W3C//DTD SVG 20010904//EN"
 "http://www.w3.org/TR/2001/REC-SVG-20010904/DTD/svg10.dtd">
<svg version="1.0" xmlns="http://www.w3.org/2000/svg"
 width="5000.000000pt" height="5000.000000pt" viewBox="0 0 5000.000000 5000.000000"
 preserveAspectRatio="xMidYMid meet">

<g transform="translate(0.000000,5000.000000) scale(0.100000,-0.100000)"
fill="#000000" stroke="none">
<path d="M0 49820 c0 -119 4 -180 10 -180 28 0 75 39 196 162 124 125 154 162
154 187 0 7 -59 11 -180 11 l-180 0 0 -180z"/>
<path d="M4640 49990 c0 -28 40 -76 167 -202 82 -81 149 -139 166 -143 52 -13
80 5 220 143 127 126 167 174 167 202 0 7 -115 10 -360 10 -245 0 -360 -3
-360 -10z"/>
<path d="M9640 49990 c0 -28 40 -76 167 -202 140 -138 168 -156 221 -143 16 4
83 62 165 143 127 126 167 174 167 202 0 7 -115 10 -360 10 -245 0 -360 -3
-360 -10z"/>
<path d="M14640 49990 c0 -28 40 -76 167 -202 140 -138 168 -156 221 -143 16
4 83 62 165 143 127 126 167 174 167 202 0 7 -115 10 -360 10 -245 0 -360 -3
-360 -10z"/>
<path d="M19640 49990 c0 -28 40 -76 167 -202 140 -138 168 -156 221 -143 16
4 83 62 165 143 127 126 167 174 167 202 0 7 -115 10 -360 10 -245 0 -360 -3
-360 -10z"/>
<path d="M24640 49990 c0 -28 40 -76 167 -202 140 -138 168 -156 221 -143 16
4 83 62 165 143 127 126 167 174 167 202 0 7 -115 10 -360 10 -245 0 -360 -3
-360 -10z"/>
<path d="M29640 49990 c0 -28 40 -76 167 -202 140 -138 168 -156 221 -143 16
4 83 62 165 143 127 126 167 174 167 202 0 7 -115 10 -360 10 -245 0 -360 -3
-360 -10z"/>
<path d="M34640 49990 c0 -28 40 -76 167 -202 140 -138 168 -156 221 -143 16
4 83 62 165 143 127 126 167 174 167 202 0 7 -115 10 -360 10 -245 0 -360 -3
-360 -10z"/>
<path d="M39640 49990 c0 -28 40 -76 167 -202 140 -138 168 -156 221 -143 16
4 83 62 165 143 127 126 167 174 167 202 0 7 -115 10 -360 10 -245 0 -360 -3
-360 -10z"/>
<path d="M44640 49990 c0 -28 40 -76 167 -202 140 -138 168 -156 221 -143 16
4 83 62 165 143 127 126 167 174 167 202 0 7 -115 10 -360 10 -245 0 -360 -3
-360 -10z"/>
<path d="M49640 49990 c0 -28 39 -75 162 -196 125 -124 162 -154 187 -154 7 0
11 59 11 180 l0 180 -180 0 c-119 0 -180 -4 -180 -10z"/>
<path d="M2455 47894 c-42 -21 -332 -312 -351 -352 -29 -61 -15 -83 159 -259
183 -185 218 -208 280 -178 38 18 357 335 358 356 0 8 2 23 4 33 7 38 -35 93
-187 243 -177 175 -201 189 -263 157z"/>
<path d="M7455 47894 c-16 -8 -99 -83 -183 -167 -174 -173 -196 -209 -167
-270 18 -38 335 -357 356 -358 8 0 23 -2 34 -4 38 -7 85 28 242 188 169 171
185 195 163 253 -14 37 -313 338 -356 359 -40 19 -51 19 -89 -1z"/>
<path d="M12455 47894 c-42 -21 -332 -312 -351 -352 -29 -61 -15 -83 159 -259
183 -185 218 -208 280 -178 38 18 357 335 358 356 0 8 2 23 4 33 7 38 -35 93
-187 243 -177 175 -201 189 -263 157z"/>
<path d="M17455 47894 c-43 -22 -323 -302 -346 -346 -34 -66 -23 -86 145 -256
83 -85 163 -162 177 -172 37 -27 77 -32 114 -14 18 8 104 88 192 177 169 171
185 195 163 253 -14 37 -313 338 -356 359 -40 19 -51 19 -89 -1z"/>
<path d="M22454 47894 c-18 -8 -104 -88 -192 -177 -174 -177 -187 -198 -157
-260 9 -19 89 -106 178 -194 176 -174 199 -187 262 -157 18 8 104 88 192 177
178 180 189 198 154 264 -24 48 -316 338 -354 352 -37 14 -46 14 -83 -5z"/>
<path d="M27455 47894 c-43 -22 -323 -302 -346 -346 -34 -66 -23 -86 145 -256
83 -85 163 -162 177 -172 37 -27 77 -32 114 -14 18 8 104 88 192 177 169 171
185 195 163 253 -14 37 -313 338 -356 359 -40 19 -51 19 -89 -1z"/>
<path d="M32454 47894 c-18 -8 -104 -88 -192 -177 -174 -177 -187 -198 -157
-260 9 -19 89 -106 178 -194 176 -174 199 -187 262 -157 18 8 104 88 192 177
178 180 189 198 154 264 -24 48 -316 338 -354 352 -37 14 -46 14 -83 -5z"/>
<path d="M37455 47894 c-43 -22 -323 -302 -346 -346 -34 -66 -23 -86 145 -256
83 -85 163 -162 177 -172 37 -27 77 -32 114 -14 18 8 104 88 192 177 169 171
185 195 163 253 -14 37 -313 338 -356 359 -40 19 -51 19 -89 -1z"/>
<path d="M42454 47894 c-18 -8 -104 -88 -192 -177 -174 -177 -187 -198 -157
-260 9 -19 89 -106 178 -194 176 -174 199 -187 262 -157 18 8 104 88 192 177
178 180 189 198 154 264 -24 48 -316 338 -354 352 -37 14 -46 14 -83 -5z"/>
<path d="M47455 47894 c-43 -22 -323 -302 -346 -346 -34 -66 -23 -86 145 -256
83 -85 163 -162 177 -172 37 -27 77 -32 114 -14 18 8 104 88 192 177 169 171
185 195 163 253 -14 37 -313 338 -356 359 -40 19 -51 19 -89 -1z"/>
<path d="M0 45000 c0 -611 -7 -568 81 -511 56 37 421 406 443 448 20 41 20 85
0 126 -22 42 -387 411 -443 448 -88 57 -81 100 -81 -511z"/>
<path d="M4919 45511 c-56 -37 -421 -406 -443 -448 -9 -18 -16 -46 -16 -63 0
-17 7 -45 16 -63 22 -42 387 -411 443 -448 29 -18 58 -29 81 -29 23 0 52 11
81 29 56 37 421 406 443 448 9 18 16 46 16 63 0 17 -7 45 -16 63 -22 42 -387
411 -443 448 -29 18 -58 29 -81 29 -23 0 -52 -11 -81 -29z"/>
<path d="M9919 45511 c-56 -37 -421 -406 -443 -448 -9 -18 -16 -46 -16 -63 0
-17 7 -45 16 -63 22 -42 387 -411 443 -448 29 -18 58 -29 81 -29 23 0 52 11
81 29 56 37 421 406 443 448 20 41 20 85 0 126 -22 42 -387 411 -443 448 -29
18 -58 29 -81 29 -23 0 -52 -11 -81 -29z"/>
<path d="M14919 45511 c-56 -37 -421 -406 -443 -448 -9 -18 -16 -46 -16 -63 0
-17 7 -45 16 -63 22 -42 387 -411 443 -448 29 -18 58 -29 81 -29 23 0 52 11
81 29 56 37 421 406 443 448 20 41 20 85 0 126 -22 42 -387 411 -443 448 -29
18 -58 29 -81 29 -23 0 -52 -11 -81 -29z"/>
<path d="M19919 45511 c-56 -37 -421 -406 -443 -448 -9 -18 -16 -46 -16 -63 0
-17 7 -45 16 -63 22 -42 387 -411 443 -448 29 -18 58 -29 81 -29 23 0 52 11
81 29 56 37 421 406 443 448 9 18 16 46 16 63 0 17 -7 45 -16 63 -22 42 -387
411 -443 448 -29 18 -58 29 -81 29 -23 0 -52 -11 -81 -29z"/>
<path d="M24919 45511 c-56 -37 -421 -406 -443 -448 -9 -18 -16 -46 -16 -63 0
-17 7 -45 16 -63 22 -42 387 -411 443 -448 29 -18 58 -29 81 -29 23 0 52 11
81 29 56 37 421 406 443 448 9 18 16 46 16 63 0 17 -7 45 -16 63 -22 42 -387
411 -443 448 -29 18 -58 29 -81 29 -23 0 -52 -11 -81 -29z"/>
<path d="M29919 45511 c-56 -37 -421 -406 -443 -448 -9 -18 -16 -46 -16 -63 0
-17 7 -45 16 -63 22 -42 387 -411 443 -448 29 -18 58 -29 81 -29 23 0 52 11
81 29 56 37 421 406 443 448 9 18 16 46 16 63 0 17 -7 45 -16 63 -22 42 -387
411 -443 448 -29 18 -58 29 -81 29 -23 0 -52 -11 -81 -29z"/>
<path d="M34919 45511 c-56 -37 -421 -406 -443 -448 -9 -18 -16 -46 -16 -63 0
-17 7 -45 16 -63 22 -42 387 -411 443 -448 29 -18 58 -29 81 -29 23 0 52 11
81 29 56 37 421 406 443 448 9 18 16 46 16 63 0 17 -7 45 -16 63 -22 42 -387
411 -443 448 -29 18 -58 29 -81 29 -23 0 -52 -11 -81 -29z"/>
<path d="M39919 45511 c-56 -37 -421 -406 -443 -448 -9 -18 -16 -46 -16 -63 0
-17 7 -45 16 -63 22 -42 387 -411 443 -448 29 -18 58 -29 81 -29 23 0 52 11
81 29 56 37 421 406 443 448 9 18 16 46 16 63 0 17 -7 45 -16 63 -22 42 -387
411 -443 448 -29 18 -58 29 -81 29 -23 0 -52 -11 -81 -29z"/>
<path d="M44919 45511 c-56 -37 -421 -406 -443 -448 -9 -18 -16 -46 -16 -63 0
-17 7 -45 16 -63 22 -42 387 -411 443 -448 29 -18 58 -29 81 -29 23 0 52 11
81 29 56 37 421 406 443 448 9 18 16 46 16 63 0 17 -7 45 -16 63 -22 42 -387
411 -443 448 -29 18 -58 29 -81 29 -23 0 -52 -11 -81 -29z"/>
<path d="M49919 45511 c-56 -37 -421 -406 -443 -448 -9 -18 -16 -46 -16 -63 0
-17 7 -45 16 -63 22 -42 387 -411 443 -448 88 -57 81 -100 81 511 0 611 7 568
-81 511z"/>
<path d="M2434 43050 c-24 -12 -128 -109 -261 -243 -322 -324 -323 -290 10
-624 258 -257 275 -269 360 -244 35 11 80 51 274 244 333 334 333 300 10 625
-268 269 -299 288 -393 242z"/>
<path d="M7434 43050 c-24 -12 -128 -109 -261 -243 -322 -324 -323 -290 10
-624 194 -193 239 -233 275 -244 84 -25 101 -13 359 244 333 334 333 300 10
625 -268 269 -299 288 -393 242z"/>
<path d="M12434 43050 c-24 -12 -128 -109 -261 -243 -322 -324 -323 -290 10
-624 258 -257 275 -269 360 -244 35 11 80 51 274 244 333 334 333 300 10 625
-268 269 -299 288 -393 242z"/>
<path d="M17434 43050 c-24 -12 -128 -109 -261 -243 -322 -324 -323 -290 10
-624 258 -257 275 -269 360 -244 35 11 80 51 274 244 333 334 333 300 10 625
-268 269 -299 288 -393 242z"/>
<path d="M22434 43050 c-24 -12 -128 -109 -261 -243 -322 -324 -323 -290 10
-624 258 -257 275 -269 360 -244 35 11 80 51 274 244 333 334 333 300 10 625
-268 269 -299 288 -393 242z"/>
<path d="M27434 43050 c-24 -12 -128 -109 -261 -243 -322 -324 -323 -290 10
-624 258 -257 275 -269 360 -244 35 11 80 51 274 244 333 334 333 300 10 625
-268 269 -299 288 -393 242z"/>
<path d="M32434 43050 c-24 -12 -128 -109 -261 -243 -322 -324 -323 -290 10
-624 258 -257 275 -269 360 -244 35 11 80 51 274 244 333 334 333 300 10 625
-268 269 -299 288 -393 242z"/>
<path d="M37434 43050 c-24 -12 -128 -109 -261 -243 -322 -324 -323 -290 10
-624 258 -257 275 -269 360 -244 35 11 80 51 274 244 333 334 333 300 10 625
-268 269 -299 288 -393 242z"/>
<path d="M42434 43050 c-24 -12 -128 -109 -261 -243 -322 -324 -323 -290 10
-624 258 -257 275 -269 360 -244 35 11 80 51 274 244 333 334 333 300 10 625
-268 269 -299 288 -393 242z"/>
<path d="M47434 43050 c-24 -12 -128 -109 -261 -243 -322 -324 -323 -290 10
-624 258 -257 275 -269 360 -244 35 11 80 51 274 244 333 334 333 300 10 625
-268 269 -299 288 -393 242z"/>
<path d="M0 40000 l0 -720 23 0 c51 0 129 65 389 327 277 278 308 317 308 393
0 76 -31 115 -308 393 -260 262 -338 327 -389 327 l-23 0 0 -720z"/>
<path d="M4905 40691 c-30 -18 -154 -134 -317 -298 -277 -278 -308 -317 -308
-393 0 -76 31 -115 308 -393 286 -288 335 -327 412 -327 77 0 126 39 412 327
277 278 308 317 308 393 0 76 -31 115 -308 393 -286 288 -335 327 -412 327
-32 0 -60 -9 -95 -29z"/>
<path d="M9905 40691 c-30 -18 -154 -134 -317 -298 -277 -278 -308 -317 -308
-393 0 -76 31 -115 308 -393 286 -288 335 -327 412 -327 77 0 126 39 412 327
277 278 308 317 308 393 0 76 -31 115 -308 393 -286 288 -335 327 -412 327
-32 0 -60 -9 -95 -29z"/>
<path d="M14905 40691 c-30 -18 -154 -134 -317 -298 -277 -278 -308 -317 -308
-393 0 -76 31 -115 308 -393 163 -164 287 -280 317 -298 61 -35 118 -38 178
-8 57 29 569 537 608 604 35 61 38 118 8 178 -29 57 -537 569 -604 608 -35 20
-63 29 -95 29 -32 0 -60 -9 -95 -29z"/>
<path d="M19905 40691 c-67 -39 -575 -551 -604 -608 -30 -60 -27 -117 8 -178
39 -67 551 -575 608 -604 23 -12 61 -21 83 -21 22 0 60 9 83 21 57 29 569 537
608 604 35 61 38 118 8 178 -29 57 -537 569 -604 608 -35 20 -63 29 -95 29
-32 0 -60 -9 -95 -29z"/>
<path d="M24905 40691 c-67 -39 -575 -551 -604 -608 -30 -60 -27 -117 8 -178
39 -67 551 -575 608 -604 23 -12 61 -21 83 -21 22 0 60 9 83 21 57 29 569 537
608 604 35 61 38 118 8 178 -29 57 -537 569 -604 608 -35 20 -63 29 -95 29
-32 0 -60 -9 -95 -29z"/>
<path d="M29905 40691 c-67 -39 -575 -551 -604 -608 -30 -60 -27 -117 8 -178
39 -67 551 -575 608 -604 23 -12 61 -21 83 -21 22 0 60 9 83 21 57 29 569 537
608 604 35 61 38 118 8 178 -29 57 -537 569 -604 608 -35 20 -63 29 -95 29
-32 0 -60 -9 -95 -29z"/>
<path d="M34905 40691 c-67 -39 -575 -551 -604 -608 -30 -60 -27 -117 8 -178
39 -67 551 -575 608 -604 23 -12 61 -21 83 -21 22 0 60 9 83 21 57 29 569 537
608 604 35 61 38 118 8 178 -29 57 -537 569 -604 608 -35 20 -63 29 -95 29
-32 0 -60 -9 -95 -29z"/>
<path d="M39905 40691 c-67 -39 -575 -551 -604 -608 -30 -60 -27 -117 8 -178
39 -67 551 -575 608 -604 23 -12 61 -21 83 -21 22 0 60 9 83 21 57 29 569 537
608 604 35 61 38 118 8 178 -29 57 -537 569 -604 608 -35 20 -63 29 -95 29
-32 0 -60 -9 -95 -29z"/>
<path d="M44905 40691 c-67 -39 -575 -551 -604 -608 -30 -60 -27 -117 8 -178
39 -67 551 -575 608 -604 23 -12 61 -21 83 -21 22 0 60 9 83 21 57 29 569 537
608 604 35 61 38 118 8 178 -29 57 -537 569 -604 608 -35 20 -63 29 -95 29
-32 0 -60 -9 -95 -29z"/>
<path d="M49905 40691 c-67 -39 -575 -551 -604 -608 -30 -60 -27 -117 8 -178
39 -67 551 -575 608 -604 23 -12 51 -21 63 -21 20 0 20 2 20 720 l0 720 -22 0
c-13 0 -45 -13 -73 -29z"/>
<path d="M2420 38209 c-33 -15 -121 -96 -327 -302 -293 -293 -323 -330 -323
-407 0 -76 30 -114 318 -403 289 -290 336 -327 412 -327 76 0 123 37 412 327
288 289 317 326 318 404 0 75 -37 122 -327 411 -289 288 -327 318 -403 318
-19 0 -55 -10 -80 -21z"/>
<path d="M7420 38209 c-33 -15 -121 -96 -323 -297 -290 -289 -327 -336 -327
-411 1 -78 30 -115 318 -404 289 -290 336 -327 412 -327 76 0 123 37 412 327
288 289 318 327 318 403 0 77 -30 114 -323 407 -293 293 -330 323 -407 323
-19 0 -55 -10 -80 -21z"/>
<path d="M12420 38209 c-33 -15 -121 -96 -327 -302 -293 -293 -323 -330 -323
-407 0 -76 30 -114 318 -403 289 -290 336 -327 412 -327 76 0 123 37 412 327
288 289 317 326 318 404 0 75 -37 122 -327 411 -289 288 -327 318 -403 318
-19 0 -55 -10 -80 -21z"/>
<path d="M17420 38209 c-33 -15 -121 -96 -323 -297 -290 -289 -327 -336 -327
-411 1 -78 30 -115 318 -404 289 -290 336 -327 412 -327 76 0 123 37 412 327
288 289 318 327 318 403 0 77 -30 114 -323 407 -293 293 -330 323 -407 323
-19 0 -55 -10 -80 -21z"/>
<path d="M22420 38209 c-33 -15 -121 -96 -327 -302 -293 -293 -323 -330 -323
-407 0 -76 30 -114 318 -403 289 -290 336 -327 412 -327 76 0 123 37 412 327
288 289 317 326 318 404 0 75 -37 122 -327 411 -289 288 -327 318 -403 318
-19 0 -55 -10 -80 -21z"/>
<path d="M27420 38209 c-33 -15 -121 -96 -323 -297 -290 -289 -327 -336 -327
-411 1 -78 30 -115 318 -404 289 -290 336 -327 412 -327 76 0 123 37 412 327
288 289 318 327 318 403 0 77 -30 114 -323 407 -293 293 -330 323 -407 323
-19 0 -55 -10 -80 -21z"/>
<path d="M32420 38209 c-33 -15 -121 -96 -327 -302 -293 -293 -323 -330 -323
-407 0 -76 30 -114 318 -403 289 -290 336 -327 412 -327 76 0 123 37 412 327
288 289 317 326 318 404 0 75 -37 122 -327 411 -289 288 -327 318 -403 318
-19 0 -55 -10 -80 -21z"/>
<path d="M37420 38209 c-33 -15 -121 -96 -323 -297 -290 -289 -327 -336 -327
-411 1 -78 30 -115 318 -404 289 -290 336 -327 412 -327 76 0 123 37 412 327
288 289 318 327 318 403 0 77 -30 114 -323 407 -293 293 -330 323 -407 323
-19 0 -55 -10 -80 -21z"/>
<path d="M42420 38209 c-33 -15 -121 -96 -327 -302 -293 -293 -323 -330 -323
-407 0 -76 30 -114 318 -403 289 -290 336 -327 412 -327 76 0 123 37 412 327
288 289 317 326 318 404 0 75 -37 122 -327 411 -289 288 -327 318 -403 318
-19 0 -55 -10 -80 -21z"/>
<path d="M47420 38209 c-33 -15 -121 -96 -323 -297 -290 -289 -327 -336 -327
-411 1 -78 30 -115 318 -404 289 -290 336 -327 412 -327 76 0 123 37 412 327
288 289 318 327 318 403 0 77 -30 114 -323 407 -293 293 -330 323 -407 323
-19 0 -55 -10 -80 -21z"/>
<path d="M0 35000 l0 -900 23 0 c12 0 47 12 77 26 46 21 114 84 402 372 375
375 398 404 398 502 0 98 -23 127 -398 502 -288 288 -356 351 -402 372 -30 14
-65 26 -77 26 l-23 0 0 -900z"/>
<path d="M4900 35874 c-46 -21 -114 -84 -402 -372 -375 -375 -398 -404 -398
-502 0 -98 23 -127 398 -502 375 -375 404 -398 502 -398 98 0 127 23 502 398
375 375 398 404 398 502 0 98 -23 127 -398 502 -375 375 -404 398 -502 398
-27 0 -67 -10 -100 -26z"/>
<path d="M9900 35874 c-46 -21 -114 -84 -402 -372 -375 -375 -398 -404 -398
-502 0 -98 23 -127 398 -502 375 -375 404 -398 502 -398 98 0 127 23 502 398
375 375 398 404 398 502 0 98 -23 127 -398 502 -375 375 -404 398 -502 398
-27 0 -67 -10 -100 -26z"/>
<path d="M14900 35874 c-46 -21 -114 -84 -402 -372 -375 -375 -398 -404 -398
-502 0 -98 23 -127 398 -502 375 -375 404 -398 502 -398 98 0 127 23 502 398
375 375 398 404 398 502 0 98 -23 127 -398 502 -375 375 -404 398 -502 398
-27 0 -67 -10 -100 -26z"/>
<path d="M19900 35874 c-46 -21 -114 -84 -402 -372 -375 -375 -398 -404 -398
-502 0 -98 23 -127 398 -502 375 -375 404 -398 502 -398 98 0 127 23 502 398
375 375 398 404 398 502 0 98 -23 127 -398 502 -375 375 -404 398 -502 398
-27 0 -67 -10 -100 -26z"/>
<path d="M24900 35874 c-46 -21 -114 -84 -402 -372 -375 -375 -398 -404 -398
-502 0 -98 23 -127 398 -502 375 -375 404 -398 502 -398 98 0 127 23 502 398
375 375 398 404 398 502 0 98 -23 127 -398 502 -375 375 -404 398 -502 398
-27 0 -67 -10 -100 -26z"/>
<path d="M29900 35874 c-46 -21 -114 -84 -402 -372 -375 -375 -398 -404 -398
-502 0 -98 23 -127 398 -502 375 -375 404 -398 502 -398 98 0 127 23 502 398
375 375 398 404 398 502 0 98 -23 127 -398 502 -375 375 -404 398 -502 398
-27 0 -67 -10 -100 -26z"/>
<path d="M34900 35874 c-46 -21 -114 -84 -402 -372 -375 -375 -398 -404 -398
-502 0 -98 23 -127 398 -502 375 -375 404 -398 502 -398 98 0 127 23 502 398
375 375 398 404 398 502 0 98 -23 127 -398 502 -375 375 -404 398 -502 398
-27 0 -67 -10 -100 -26z"/>
<path d="M39900 35874 c-46 -21 -114 -84 -402 -372 -375 -375 -398 -404 -398
-502 0 -98 23 -127 398 -502 375 -375 404 -398 502 -398 98 0 127 23 502 398
375 375 398 404 398 502 0 98 -23 127 -398 502 -375 375 -404 398 -502 398
-27 0 -67 -10 -100 -26z"/>
<path d="M44900 35874 c-46 -21 -114 -84 -402 -372 -375 -375 -398 -404 -398
-502 0 -98 23 -127 398 -502 375 -375 404 -398 502 -398 98 0 127 23 502 398
375 375 398 404 398 502 0 98 -23 127 -398 502 -375 375 -404 398 -502 398
-27 0 -67 -10 -100 -26z"/>
<path d="M49900 35874 c-46 -21 -114 -84 -402 -372 -375 -375 -398 -404 -398
-502 0 -98 23 -127 398 -502 288 -288 356 -351 402 -372 30 -14 65 -26 78 -26
l22 0 0 900 0 900 -22 0 c-13 0 -48 -12 -78 -26z"/>
<path d="M2400 33368 c-33 -15 -142 -118 -396 -372 -377 -377 -394 -399 -394
-493 0 -101 22 -128 393 -500 372 -371 399 -393 500 -393 94 0 116 17 493 394
379 379 394 398 394 496 0 98 -15 117 -394 496 -269 269 -362 356 -398 372
-62 28 -138 28 -198 0z"/>
<path d="M7400 33368 c-33 -15 -142 -118 -396 -372 -379 -379 -394 -398 -394
-496 0 -98 15 -117 394 -496 377 -377 399 -394 493 -394 101 0 128 22 500 393
371 372 393 399 393 500 0 94 -17 116 -394 493 -269 269 -362 356 -398 372
-62 28 -138 28 -198 0z"/>
<path d="M12400 33368 c-33 -15 -142 -118 -396 -372 -377 -377 -394 -399 -394
-493 0 -101 22 -128 393 -500 372 -371 399 -393 500 -393 94 0 116 17 493 394
379 379 394 398 394 496 0 98 -15 117 -394 496 -269 269 -362 356 -398 372
-62 28 -138 28 -198 0z"/>
<path d="M17400 33368 c-33 -15 -142 -118 -396 -372 -379 -379 -394 -398 -394
-496 0 -98 15 -117 394 -496 377 -377 399 -394 493 -394 101 0 128 22 500 393
371 372 393 399 393 500 0 94 -17 116 -394 493 -269 269 -362 356 -398 372
-62 28 -138 28 -198 0z"/>
<path d="M22400 33368 c-33 -15 -142 -118 -396 -372 -379 -379 -394 -398 -394
-496 0 -97 22 -125 393 -497 372 -372 398 -393 500 -393 94 0 116 17 493 394
379 379 394 398 394 496 0 98 -15 117 -394 496 -269 269 -362 356 -398 372
-62 28 -138 28 -198 0z"/>
<path d="M27400 33368 c-33 -15 -142 -118 -396 -372 -379 -379 -394 -398 -394
-496 0 -98 15 -117 394 -496 377 -377 399 -394 493 -394 101 0 128 22 500 393
371 372 393 399 393 500 0 94 -17 116 -394 493 -269 269 -362 356 -398 372
-62 28 -138 28 -198 0z"/>
<path d="M32400 33368 c-33 -15 -142 -118 -396 -372 -379 -379 -394 -398 -394
-496 0 -97 22 -125 393 -497 372 -372 398 -393 500 -393 94 0 116 17 493 394
379 379 394 398 394 496 0 98 -15 117 -394 496 -269 269 -362 356 -398 372
-62 28 -138 28 -198 0z"/>
<path d="M37400 33368 c-33 -15 -142 -118 -396 -372 -379 -379 -394 -398 -394
-496 0 -98 15 -117 394 -496 377 -377 399 -394 493 -394 101 0 128 22 500 393
371 372 393 399 393 500 0 94 -17 116 -394 493 -269 269 -362 356 -398 372
-62 28 -138 28 -198 0z"/>
<path d="M42400 33368 c-33 -15 -142 -118 -396 -372 -379 -379 -394 -398 -394
-496 0 -97 22 -125 393 -497 372 -372 398 -393 500 -393 94 0 116 17 493 394
379 379 394 398 394 496 0 98 -15 117 -394 496 -269 269 -362 356 -398 372
-62 28 -138 28 -198 0z"/>
<path d="M47400 33368 c-33 -15 -142 -118 -396 -372 -379 -379 -394 -398 -394
-496 0 -98 15 -117 394 -496 377 -377 399 -394 493 -394 101 0 128 22 500 393
371 372 393 399 393 500 0 94 -17 116 -394 493 -269 269 -362 356 -398 372
-62 28 -138 28 -198 0z"/>
<path d="M0 30000 l0 -1080 28 0 c15 0 56 14 92 31 59 27 106 71 482 447 376
376 420 423 447 482 42 88 42 152 0 240 -27 59 -71 106 -447 482 -376 376
-423 420 -482 447 -36 17 -77 31 -92 31 l-28 0 0 -1080z"/>
<path d="M4930 31071 c-82 -25 -126 -64 -532 -470 -376 -375 -420 -422 -447
-481 -42 -88 -42 -152 0 -240 27 -59 71 -106 447 -482 376 -376 423 -420 482
-447 48 -23 79 -31 120 -31 41 0 72 8 120 31 59 27 106 71 482 447 376 376
420 423 447 482 42 88 42 152 0 240 -27 59 -71 106 -447 482 -376 376 -423
420 -482 447 -66 32 -133 39 -190 22z"/>
<path d="M9880 31049 c-59 -27 -106 -71 -482 -447 -376 -376 -420 -423 -447
-482 -42 -88 -42 -152 0 -240 27 -59 71 -106 447 -482 376 -376 423 -420 482
-447 48 -23 79 -31 120 -31 41 0 72 8 120 31 59 27 106 71 482 447 376 376
420 423 447 482 42 88 42 152 0 240 -27 59 -71 106 -447 482 -376 376 -423
420 -482 447 -48 23 -79 31 -120 31 -41 0 -72 -8 -120 -31z"/>
<path d="M14930 31071 c-82 -25 -126 -64 -532 -470 -376 -375 -420 -422 -447
-481 -42 -88 -42 -152 0 -240 27 -59 71 -106 447 -482 376 -376 423 -420 482
-447 48 -23 79 -31 120 -31 41 0 72 8 120 31 59 27 106 71 482 447 376 376
420 423 447 482 42 88 42 152 0 240 -27 59 -71 106 -447 482 -376 376 -423
420 -482 447 -66 32 -133 39 -190 22z"/>
<path d="M19880 31049 c-59 -27 -106 -71 -482 -447 -376 -376 -420 -423 -447
-482 -42 -88 -42 -152 0 -240 27 -59 71 -106 447 -482 376 -376 423 -420 482
-447 48 -23 79 -31 120 -31 41 0 72 8 120 31 59 27 106 71 482 447 376 376
420 423 447 482 23 48 31 79 31 120 0 41 -8 72 -31 120 -27 59 -71 106 -447
482 -376 376 -423 420 -482 447 -48 23 -79 31 -120 31 -41 0 -72 -8 -120 -31z"/>
<path d="M24930 31071 c-82 -25 -126 -64 -532 -470 -376 -375 -420 -422 -447
-481 -23 -48 -31 -79 -31 -120 0 -41 8 -72 31 -120 27 -59 71 -106 447 -482
376 -376 423 -420 482 -447 48 -23 79 -31 120 -31 41 0 72 8 120 31 59 27 106
71 482 447 376 376 420 423 447 482 23 48 31 79 31 120 0 41 -8 72 -31 120
-27 59 -71 106 -447 482 -376 376 -423 420 -482 447 -66 32 -133 39 -190 22z"/>
<path d="M29880 31049 c-59 -27 -106 -71 -482 -447 -376 -376 -420 -423 -447
-482 -23 -48 -31 -79 -31 -120 0 -41 8 -72 31 -120 27 -59 71 -106 447 -482
376 -376 423 -420 482 -447 48 -23 79 -31 120 -31 41 0 72 8 120 31 59 27 106
71 482 447 376 376 420 423 447 482 23 48 31 79 31 120 0 41 -8 72 -31 120
-27 59 -71 106 -447 482 -376 376 -423 420 -482 447 -48 23 -79 31 -120 31
-41 0 -72 -8 -120 -31z"/>
<path d="M34930 31071 c-82 -25 -126 -64 -532 -470 -376 -375 -420 -422 -447
-481 -23 -48 -31 -79 -31 -120 0 -41 8 -72 31 -120 27 -59 71 -106 447 -482
376 -376 423 -420 482 -447 48 -23 79 -31 120 -31 41 0 72 8 120 31 59 27 106
71 482 447 376 376 420 423 447 482 23 48 31 79 31 120 0 41 -8 72 -31 120
-27 59 -71 106 -447 482 -376 376 -423 420 -482 447 -66 32 -133 39 -190 22z"/>
<path d="M39880 31049 c-59 -27 -106 -71 -482 -447 -376 -376 -420 -423 -447
-482 -23 -48 -31 -79 -31 -120 0 -41 8 -72 31 -120 27 -59 71 -106 447 -482
376 -376 423 -420 482 -447 48 -23 79 -31 120 -31 41 0 72 8 120 31 59 27 106
71 482 447 376 376 420 423 447 482 23 48 31 79 31 120 0 41 -8 72 -31 120
-27 59 -71 106 -447 482 -376 376 -423 420 -482 447 -48 23 -79 31 -120 31
-41 0 -72 -8 -120 -31z"/>
<path d="M44930 31071 c-82 -25 -126 -64 -532 -470 -376 -375 -420 -422 -447
-481 -23 -48 -31 -79 -31 -120 0 -41 8 -72 31 -120 27 -59 71 -106 447 -482
376 -376 423 -420 482 -447 48 -23 79 -31 120 -31 41 0 72 8 120 31 59 27 106
71 482 447 376 376 420 423 447 482 23 48 31 79 31 120 0 41 -8 72 -31 120
-27 59 -71 106 -447 482 -376 376 -423 420 -482 447 -66 32 -133 39 -190 22z"/>
<path d="M49880 31049 c-59 -27 -106 -71 -482 -447 -376 -376 -420 -423 -447
-482 -23 -48 -31 -79 -31 -120 0 -41 8 -72 31 -120 27 -59 71 -106 447 -482
376 -376 423 -420 482 -447 36 -17 77 -31 93 -31 l27 0 0 1080 0 1080 -27 0
c-16 0 -57 -14 -93 -31z"/>
<path d="M2451 28548 c-23 -4 -64 -19 -90 -34 -28 -16 -206 -187 -452 -433
-452 -452 -461 -463 -461 -581 0 -118 8 -129 466 -586 457 -458 468 -466 586
-466 118 0 129 8 586 466 458 457 466 468 466 586 0 118 -9 129 -461 581 -247
247 -424 417 -453 433 -55 32 -126 45 -187 34z"/>
<path d="M7451 28549 c-23 -5 -64 -20 -90 -35 -28 -16 -206 -187 -452 -433
-452 -452 -461 -463 -461 -581 0 -118 8 -129 466 -586 457 -458 468 -466 586
-466 118 0 129 8 586 466 458 457 465 466 465 585 1 120 -6 128 -465 587 -345
345 -420 415 -466 437 -65 30 -109 37 -169 26z"/>
<path d="M12451 28548 c-23 -4 -64 -19 -90 -34 -28 -16 -206 -187 -452 -433
-452 -452 -461 -463 -461 -581 0 -118 8 -129 466 -586 457 -458 468 -466 586
-466 118 0 129 8 586 466 458 457 466 468 466 586 0 118 -9 129 -461 581 -247
247 -424 417 -453 433 -55 32 -126 45 -187 34z"/>
<path d="M17451 28549 c-23 -5 -64 -20 -90 -35 -28 -16 -206 -187 -452 -433
-452 -452 -461 -463 -461 -581 0 -118 8 -129 466 -586 457 -458 468 -466 586
-466 118 0 129 8 586 466 458 457 466 468 466 586 0 118 -8 129 -466 586 -345
345 -420 415 -466 437 -65 30 -109 37 -169 26z"/>
<path d="M22451 28548 c-23 -4 -64 -19 -90 -34 -28 -16 -206 -187 -452 -433
-452 -452 -461 -463 -461 -581 0 -118 8 -129 466 -586 457 -458 468 -466 586
-466 118 0 129 8 586 466 458 457 466 468 466 586 0 118 -9 129 -461 581 -247
247 -424 417 -453 433 -55 32 -126 45 -187 34z"/>
<path d="M27451 28549 c-23 -5 -64 -20 -90 -35 -28 -16 -206 -187 -452 -433
-452 -452 -461 -463 -461 -581 0 -118 8 -129 466 -586 457 -458 468 -466 586
-466 118 0 129 8 586 466 458 457 466 468 466 586 0 118 -8 129 -466 586 -345
345 -420 415 -466 437 -65 30 -109 37 -169 26z"/>
<path d="M32451 28548 c-23 -4 -64 -19 -90 -34 -28 -16 -206 -187 -452 -433
-452 -452 -461 -463 -461 -581 0 -118 8 -129 466 -586 457 -458 468 -466 586
-466 118 0 129 8 586 466 458 457 466 468 466 586 0 118 -9 129 -461 581 -247
247 -424 417 -453 433 -55 32 -126 45 -187 34z"/>
<path d="M37451 28549 c-23 -5 -64 -20 -90 -35 -28 -16 -206 -187 -452 -433
-452 -452 -461 -463 -461 -581 0 -118 8 -129 466 -586 457 -458 468 -466 586
-466 118 0 129 8 586 466 458 457 466 468 466 586 0 118 -8 129 -466 586 -345
345 -420 415 -466 437 -65 30 -109 37 -169 26z"/>
<path d="M42451 28548 c-23 -4 -64 -19 -90 -34 -28 -16 -206 -187 -452 -433
-452 -452 -461 -463 -461 -581 0 -118 8 -129 466 -586 457 -458 468 -466 586
-466 118 0 129 8 586 466 458 457 466 468 466 586 0 118 -9 129 -461 581 -247
247 -424 417 -453 433 -55 32 -126 45 -187 34z"/>
<path d="M47451 28549 c-23 -5 -64 -20 -90 -35 -28 -16 -206 -187 -452 -433
-452 -452 -461 -463 -461 -581 0 -118 8 -129 466 -586 457 -458 468 -466 586
-466 118 0 129 8 586 466 458 457 466 468 466 586 0 118 -8 129 -466 586 -345
345 -420 415 -466 437 -65 30 -109 37 -169 26z"/>
<path d="M0 25000 l0 -1263 46 7 c110 15 136 36 655 555 560 561 554 553 554
701 0 148 6 140 -554 701 -519 519 -545 540 -655 555 l-46 7 0 -1263z"/>
<path d="M4908 26247 c-94 -36 -144 -80 -614 -551 -555 -556 -549 -548 -549
-696 0 -148 -6 -140 554 -701 561 -560 553 -554 701 -554 148 0 140 -6 701
554 560 561 554 553 554 701 0 148 6 140 -554 701 -547 546 -550 549 -685 556
-44 2 -85 -2 -108 -10z"/>
<path d="M9908 26247 c-94 -36 -144 -80 -614 -551 -555 -556 -549 -548 -549
-696 0 -148 -6 -140 554 -701 561 -560 553 -554 701 -554 148 0 140 -6 701
554 560 561 554 553 554 701 0 148 6 140 -554 701 -547 546 -550 549 -685 556
-44 2 -85 -2 -108 -10z"/>
<path d="M14908 26247 c-94 -36 -144 -80 -614 -551 -555 -556 -549 -548 -549
-696 0 -148 -6 -140 554 -701 561 -560 553 -554 701 -554 148 0 140 -6 701
554 560 561 554 553 554 701 0 148 6 140 -554 701 -547 546 -550 549 -685 556
-44 2 -85 -2 -108 -10z"/>
<path d="M19908 26247 c-94 -36 -144 -80 -614 -551 -555 -556 -549 -548 -549
-696 0 -148 -6 -140 554 -701 561 -560 553 -554 701 -554 148 0 140 -6 701
554 560 561 554 553 554 701 0 148 6 140 -554 701 -547 546 -550 549 -685 556
-44 2 -85 -2 -108 -10z"/>
<path d="M24908 26247 c-94 -36 -144 -80 -614 -551 -555 -556 -549 -548 -549
-696 0 -148 -6 -140 554 -701 561 -560 553 -554 701 -554 148 0 140 -6 701
554 560 561 554 553 554 701 0 148 6 140 -554 701 -547 546 -550 549 -685 556
-44 2 -85 -2 -108 -10z"/>
<path d="M29908 26247 c-94 -36 -144 -80 -614 -551 -555 -556 -549 -548 -549
-696 0 -148 -6 -140 554 -701 561 -560 553 -554 701 -554 148 0 140 -6 701
554 560 561 554 553 554 701 0 148 6 140 -554 701 -547 546 -550 549 -685 556
-44 2 -85 -2 -108 -10z"/>
<path d="M34908 26247 c-94 -36 -144 -80 -614 -551 -555 -556 -549 -548 -549
-696 0 -148 -6 -140 554 -701 561 -560 553 -554 701 -554 148 0 140 -6 701
554 560 561 554 553 554 701 0 148 6 140 -554 701 -547 546 -550 549 -685 556
-44 2 -85 -2 -108 -10z"/>
<path d="M39908 26247 c-94 -36 -144 -80 -614 -551 -555 -556 -549 -548 -549
-696 0 -148 -6 -140 554 -701 561 -560 553 -554 701 -554 148 0 140 -6 701
554 560 561 554 553 554 701 0 148 6 140 -554 701 -547 546 -550 549 -685 556
-44 2 -85 -2 -108 -10z"/>
<path d="M44908 26247 c-94 -36 -144 -80 -614 -551 -555 -556 -549 -548 -549
-696 0 -148 -6 -140 554 -701 561 -560 553 -554 701 -554 148 0 140 -6 701
554 560 561 554 553 554 701 0 148 6 140 -554 701 -547 546 -550 549 -685 556
-44 2 -85 -2 -108 -10z"/>
<path d="M49908 26246 c-93 -33 -142 -78 -614 -550 -555 -556 -549 -548 -549
-696 0 -148 -6 -140 554 -701 519 -519 545 -540 655 -555 l46 -7 0 1262 0
1261 -27 0 c-16 -1 -44 -7 -65 -14z"/>
<path d="M2429 23707 c-97 -27 -138 -63 -610 -536 -427 -427 -469 -472 -500
-535 -47 -97 -47 -175 0 -272 31 -63 72 -108 505 -540 432 -433 477 -474 540
-505 96 -46 176 -46 273 1 62 30 110 74 539 504 432 432 474 477 505 540 46
96 46 176 -1 273 -30 62 -75 110 -504 539 -427 427 -477 474 -536 502 -77 36
-148 46 -211 29z"/>
<path d="M7442 23710 c-100 -21 -129 -46 -618 -534 -431 -431 -474 -477 -504
-539 -47 -97 -47 -177 -1 -273 31 -63 73 -109 505 -540 433 -433 477 -474 540
-505 97 -47 175 -47 272 0 63 31 108 72 540 505 433 432 474 477 505 540 27
57 33 80 33 136 0 56 -6 79 -33 136 -31 63 -72 108 -505 540 -426 426 -477
474 -536 502 -73 35 -135 45 -198 32z"/>
<path d="M12429 23707 c-97 -27 -138 -63 -610 -536 -427 -427 -469 -472 -500
-535 -47 -97 -47 -175 0 -272 31 -63 72 -108 505 -540 432 -433 477 -474 540
-505 96 -46 176 -46 273 1 62 30 110 74 539 504 432 432 474 477 505 540 46
96 46 176 -1 273 -30 62 -75 110 -504 539 -427 427 -477 474 -536 502 -77 36
-148 46 -211 29z"/>
<path d="M17442 23710 c-100 -21 -129 -46 -618 -534 -430 -429 -474 -477 -504
-539 -47 -97 -47 -177 -1 -273 31 -63 72 -107 505 -540 432 -432 477 -474 540
-505 97 -47 175 -47 272 0 63 31 108 72 540 505 433 432 474 477 505 540 47
97 47 175 0 272 -31 63 -72 107 -505 540 -425 426 -477 474 -536 502 -73 35
-135 45 -198 32z"/>
<path d="M22429 23707 c-97 -27 -138 -63 -610 -536 -427 -427 -469 -472 -500
-535 -47 -97 -47 -175 0 -272 31 -63 72 -108 505 -540 432 -433 477 -474 540
-505 96 -46 176 -46 273 1 62 30 110 75 539 504 433 432 474 477 505 540 46
96 46 176 -1 273 -30 62 -75 110 -504 539 -427 427 -477 474 -536 502 -77 36
-148 46 -211 29z"/>
<path d="M27442 23710 c-100 -21 -129 -46 -618 -534 -430 -429 -474 -477 -504
-539 -47 -97 -47 -177 -1 -273 31 -63 72 -107 505 -540 432 -432 477 -474 540
-505 97 -47 175 -47 272 0 63 31 108 72 540 505 433 432 474 477 505 540 47
97 47 175 0 272 -31 63 -72 107 -505 540 -425 426 -477 474 -536 502 -73 35
-135 45 -198 32z"/>
<path d="M32429 23707 c-97 -27 -138 -63 -610 -536 -427 -427 -469 -472 -500
-535 -47 -97 -47 -175 0 -272 31 -63 72 -108 505 -540 432 -433 477 -474 540
-505 96 -46 176 -46 273 1 62 30 110 75 539 504 433 432 474 477 505 540 46
96 46 176 -1 273 -30 62 -75 110 -504 539 -427 427 -477 474 -536 502 -77 36
-148 46 -211 29z"/>
<path d="M37442 23710 c-100 -21 -129 -46 -618 -534 -430 -429 -474 -477 -504
-539 -47 -97 -47 -177 -1 -273 31 -63 72 -107 505 -540 432 -432 477 -474 540
-505 97 -47 175 -47 272 0 63 31 108 72 540 505 433 432 474 477 505 540 47
97 47 175 0 272 -31 63 -72 107 -505 540 -425 426 -477 474 -536 502 -73 35
-135 45 -198 32z"/>
<path d="M42429 23707 c-97 -27 -138 -63 -610 -536 -427 -427 -469 -472 -500
-535 -47 -97 -47 -175 0 -272 31 -63 72 -108 505 -540 432 -433 477 -474 540
-505 96 -46 176 -46 273 1 62 30 110 75 539 504 433 432 474 477 505 540 46
96 46 176 -1 273 -30 62 -75 110 -504 539 -427 427 -477 474 -536 502 -77 36
-148 46 -211 29z"/>
<path d="M47442 23710 c-100 -21 -129 -46 -618 -534 -430 -429 -474 -477 -504
-539 -47 -97 -47 -177 -1 -273 31 -63 72 -107 505 -540 432 -432 477 -474 540
-505 97 -47 175 -47 272 0 63 31 108 72 540 505 433 432 474 477 505 540 47
97 47 175 0 272 -31 63 -72 107 -505 540 -425 426 -477 474 -536 502 -73 35
-135 45 -198 32z"/>
<path d="M0 20000 l0 -1443 48 7 c26 3 81 22 122 42 72 35 100 62 631 593 541
540 558 558 595 635 36 74 39 86 39 166 0 80 -3 92 -39 166 -37 77 -54 95
-595 635 -531 531 -559 558 -631 593 -41 20 -96 39 -122 42 l-48 7 0 -1443z"/>
<path d="M4877 21416 c-32 -13 -77 -37 -100 -51 -23 -15 -288 -273 -588 -574
-530 -529 -548 -548 -585 -625 -36 -74 -39 -86 -39 -166 0 -79 3 -92 39 -165
37 -78 54 -96 595 -636 540 -541 558 -558 635 -595 74 -36 86 -39 166 -39 80
0 92 3 166 39 77 37 95 54 635 595 541 540 558 558 595 635 36 74 39 86 39
166 0 80 -3 92 -39 166 -37 77 -54 95 -595 635 -540 541 -558 558 -635 595
-68 33 -91 39 -155 42 -62 2 -87 -2 -134 -22z"/>
<path d="M9895 21423 c-111 -40 -143 -69 -701 -627 -535 -535 -553 -553 -590
-630 -36 -74 -39 -86 -39 -166 0 -80 3 -92 39 -166 37 -77 54 -95 595 -635
540 -541 558 -558 635 -595 74 -36 86 -39 166 -39 80 0 92 3 166 39 77 37 95
54 635 595 541 540 558 558 595 635 36 74 39 86 39 166 0 80 -3 92 -39 166
-37 77 -54 95 -595 635 -535 536 -559 558 -633 594 -96 47 -192 57 -273 28z"/>
<path d="M14877 21416 c-32 -13 -77 -37 -100 -51 -23 -15 -288 -273 -588 -574
-530 -529 -548 -548 -585 -625 -36 -74 -39 -86 -39 -166 0 -79 3 -92 39 -165
37 -78 54 -96 595 -636 540 -541 558 -558 635 -595 74 -36 86 -39 166 -39 80
0 92 3 166 39 77 37 95 54 635 595 541 540 558 558 595 635 36 74 39 86 39
166 0 80 -3 92 -39 166 -37 77 -54 95 -595 635 -540 541 -558 558 -635 595
-68 33 -91 39 -155 42 -62 2 -87 -2 -134 -22z"/>
<path d="M19895 21423 c-111 -40 -143 -69 -701 -627 -535 -535 -553 -553 -590
-630 -36 -74 -39 -86 -39 -166 0 -80 3 -92 39 -166 37 -77 54 -95 595 -635
540 -541 558 -558 635 -595 74 -36 86 -39 166 -39 80 0 92 3 166 39 77 37 95
54 635 595 541 540 558 558 595 635 36 74 39 86 39 166 0 80 -3 92 -39 166
-37 77 -54 95 -595 635 -535 536 -559 558 -633 594 -96 47 -192 57 -273 28z"/>
<path d="M24877 21416 c-32 -13 -77 -37 -100 -51 -23 -15 -288 -273 -588 -574
-530 -530 -548 -548 -585 -625 -36 -74 -39 -86 -39 -166 0 -80 3 -92 39 -166
37 -77 54 -95 595 -635 540 -541 558 -558 635 -595 74 -36 86 -39 166 -39 80
0 92 3 166 39 77 37 95 54 635 595 541 540 558 558 595 635 36 74 39 86 39
166 0 80 -3 92 -39 166 -37 77 -54 95 -595 635 -540 541 -558 558 -635 595
-68 33 -91 39 -155 42 -62 2 -87 -2 -134 -22z"/>
<path d="M29895 21423 c-111 -40 -143 -69 -701 -627 -535 -535 -553 -553 -590
-630 -36 -74 -39 -86 -39 -166 0 -80 3 -92 39 -166 37 -77 54 -95 595 -635
540 -541 558 -558 635 -595 74 -36 86 -39 166 -39 80 0 92 3 166 39 77 37 95
54 635 595 541 540 558 558 595 635 36 74 39 86 39 166 0 80 -3 92 -39 166
-37 77 -54 95 -595 635 -535 536 -559 558 -633 594 -96 47 -192 57 -273 28z"/>
<path d="M34877 21416 c-32 -13 -77 -37 -100 -51 -23 -15 -288 -273 -588 -574
-530 -530 -548 -548 -585 -625 -36 -74 -39 -86 -39 -166 0 -80 3 -92 39 -166
37 -77 54 -95 595 -635 540 -541 558 -558 635 -595 74 -36 86 -39 166 -39 80
0 92 3 166 39 77 37 95 54 635 595 541 540 558 558 595 635 36 74 39 86 39
166 0 80 -3 92 -39 166 -37 77 -54 95 -595 635 -540 541 -558 558 -635 595
-68 33 -91 39 -155 42 -62 2 -87 -2 -134 -22z"/>
<path d="M39895 21423 c-111 -40 -143 -69 -701 -627 -535 -535 -553 -553 -590
-630 -36 -74 -39 -86 -39 -166 0 -80 3 -92 39 -166 37 -77 54 -95 595 -635
540 -541 558 -558 635 -595 74 -36 86 -39 166 -39 80 0 92 3 166 39 77 37 95
54 635 595 541 540 558 558 595 635 36 74 39 86 39 166 0 80 -3 92 -39 166
-37 77 -54 95 -595 635 -535 536 -559 558 -633 594 -96 47 -192 57 -273 28z"/>
<path d="M44877 21416 c-32 -13 -77 -37 -100 -51 -23 -15 -288 -273 -588 -574
-530 -530 -548 -548 -585 -625 -36 -74 -39 -86 -39 -166 0 -80 3 -92 39 -166
37 -77 54 -95 595 -635 540 -541 558 -558 635 -595 74 -36 86 -39 166 -39 80
0 92 3 166 39 77 37 95 54 635 595 541 540 558 558 595 635 36 74 39 86 39
166 0 80 -3 92 -39 166 -37 77 -54 95 -595 635 -540 541 -558 558 -635 595
-68 33 -91 39 -155 42 -62 2 -87 -2 -134 -22z"/>
<path d="M49895 21422 c-110 -38 -142 -67 -701 -626 -535 -535 -553 -553 -590
-630 -36 -74 -39 -86 -39 -166 0 -80 3 -92 39 -166 37 -77 54 -95 595 -635
531 -531 559 -558 631 -593 41 -20 96 -39 123 -42 l47 -7 0 1442 0 1441 -27 0
c-16 -1 -51 -8 -78 -18z"/>
<path d="M2396 18860 c-33 -12 -80 -35 -105 -52 -62 -42 -1020 -996 -1081
-1077 -52 -70 -90 -166 -90 -231 0 -65 38 -161 90 -231 27 -35 275 -289 552
-565 485 -483 506 -503 582 -540 72 -35 88 -39 156 -39 68 0 84 4 156 39 77
37 95 55 610 570 515 515 533 533 570 610 35 72 39 88 39 156 0 68 -4 84 -39
156 -37 76 -57 97 -545 587 -278 279 -532 526 -563 549 -113 82 -226 105 -332
68z"/>
<path d="M7420 18866 c-71 -21 -91 -31 -155 -79 -33 -25 -285 -272 -561 -549
-474 -476 -503 -507 -538 -578 -69 -141 -55 -259 44 -390 61 -82 1019 -1036
1081 -1078 122 -82 237 -90 368 -26 72 35 102 62 579 538 277 276 525 530 552
565 52 70 90 166 90 231 0 65 -38 161 -90 231 -61 81 -1019 1035 -1081 1077
-56 38 -156 72 -206 71 -21 0 -58 -6 -83 -13z"/>
<path d="M12396 18860 c-33 -12 -80 -35 -105 -52 -62 -42 -1020 -996 -1081
-1077 -52 -70 -90 -166 -90 -231 0 -65 38 -161 90 -231 27 -35 275 -289 552
-565 485 -483 506 -503 582 -540 72 -35 88 -39 156 -39 68 0 84 4 156 39 77
37 95 55 610 570 515 515 533 533 570 610 35 72 39 88 39 156 0 68 -4 84 -39
156 -37 76 -57 97 -545 587 -278 279 -532 526 -563 549 -113 82 -226 105 -332
68z"/>
<path d="M17420 18866 c-71 -21 -91 -31 -155 -79 -33 -25 -285 -272 -561 -549
-483 -485 -503 -506 -540 -582 -35 -72 -39 -88 -39 -156 0 -68 4 -84 39 -156
37 -76 57 -97 540 -582 276 -277 530 -525 566 -552 131 -99 249 -113 390 -44
71 35 102 64 578 538 277 276 525 530 552 565 52 70 90 166 90 231 0 65 -38
161 -90 231 -61 81 -1019 1035 -1081 1077 -56 38 -156 72 -206 71 -21 0 -58
-6 -83 -13z"/>
<path d="M22396 18860 c-33 -12 -80 -35 -105 -52 -62 -42 -1020 -996 -1081
-1077 -52 -70 -90 -166 -90 -231 0 -65 38 -161 90 -231 27 -35 275 -289 552
-565 485 -483 506 -503 582 -540 72 -35 88 -39 156 -39 68 0 84 4 156 39 77
37 95 55 610 570 515 515 533 533 570 610 35 72 39 88 39 156 0 68 -4 84 -39
156 -37 76 -57 97 -545 587 -278 279 -532 526 -563 549 -113 82 -226 105 -332
68z"/>
<path d="M27420 18866 c-71 -21 -91 -31 -155 -79 -33 -25 -285 -272 -561 -549
-483 -485 -503 -506 -540 -582 -35 -72 -39 -88 -39 -156 0 -68 4 -84 39 -156
37 -76 57 -97 540 -582 276 -277 530 -525 566 -552 131 -99 249 -113 390 -44
71 35 102 64 578 538 277 276 525 530 552 565 52 70 90 166 90 231 0 65 -38
161 -90 231 -61 81 -1019 1035 -1081 1077 -56 38 -156 72 -206 71 -21 0 -58
-6 -83 -13z"/>
<path d="M32396 18860 c-33 -12 -80 -35 -105 -52 -62 -42 -1020 -996 -1081
-1077 -52 -70 -90 -166 -90 -231 0 -65 38 -161 90 -231 27 -35 275 -289 552
-565 485 -483 506 -503 582 -540 72 -35 88 -39 156 -39 68 0 84 4 156 39 77
37 95 55 610 570 515 515 533 533 570 610 35 72 39 88 39 156 0 68 -4 84 -39
156 -37 76 -57 97 -545 587 -278 279 -532 526 -563 549 -113 82 -226 105 -332
68z"/>
<path d="M37420 18866 c-71 -21 -91 -31 -155 -79 -33 -25 -285 -272 -561 -549
-483 -485 -503 -506 -540 -582 -35 -72 -39 -88 -39 -156 0 -68 4 -84 39 -156
37 -76 57 -97 540 -582 276 -277 530 -525 566 -552 131 -99 249 -113 390 -44
71 35 102 64 578 538 277 276 525 530 552 565 52 70 90 166 90 231 0 65 -38
161 -90 231 -61 81 -1019 1035 -1081 1077 -56 38 -156 72 -206 71 -21 0 -58
-6 -83 -13z"/>
<path d="M42396 18860 c-33 -12 -80 -35 -105 -52 -62 -42 -1020 -996 -1081
-1077 -52 -70 -90 -166 -90 -231 0 -65 38 -161 90 -231 27 -35 275 -289 552
-565 485 -483 506 -503 582 -540 72 -35 88 -39 156 -39 68 0 84 4 156 39 77
37 95 55 610 570 515 515 533 533 570 610 35 72 39 88 39 156 0 68 -4 84 -39
156 -37 76 -57 97 -545 587 -278 279 -532 526 -563 549 -113 82 -226 105 -332
68z"/>
<path d="M47420 18866 c-71 -21 -91 -31 -155 -79 -33 -25 -285 -272 -561 -549
-483 -485 -503 -506 -540 -582 -35 -72 -39 -88 -39 -156 0 -68 4 -84 39 -156
37 -76 57 -97 540 -582 276 -277 530 -525 566 -552 131 -99 249 -113 390 -44
71 35 102 64 578 538 277 276 525 530 552 565 52 70 90 166 90 231 0 65 -38
161 -90 231 -61 81 -1019 1035 -1081 1077 -56 38 -156 72 -206 71 -21 0 -58
-6 -83 -13z"/>
<path d="M0 15000 l0 -1623 51 6 c60 7 163 53 222 99 62 46 1170 1152 1228
1224 27 34 64 93 82 130 29 63 32 78 32 164 0 86 -3 101 -32 163 -18 38 -47
88 -65 110 -46 62 -1152 1170 -1224 1228 -76 61 -175 108 -243 116 l-51 6 0
-1623z"/>
<path d="M4895 16607 c-65 -22 -126 -56 -190 -108 -33 -26 -324 -312 -646
-636 -583 -586 -585 -588 -630 -677 -43 -86 -44 -91 -44 -185 0 -88 3 -102 32
-165 18 -37 55 -96 82 -130 58 -72 1166 -1178 1228 -1224 22 -18 72 -47 110
-65 62 -29 77 -32 163 -32 86 0 101 3 163 32 38 18 88 47 110 65 62 46 1170
1152 1228 1224 27 34 64 93 82 130 29 63 32 78 32 164 0 86 -3 101 -32 163
-18 38 -47 88 -65 110 -46 62 -1152 1170 -1224 1228 -96 77 -181 112 -279 116
-48 2 -96 -2 -120 -10z"/>
<path d="M9895 16607 c-65 -22 -126 -56 -190 -108 -33 -26 -324 -312 -646
-636 l-586 -588 -44 -89 c-43 -87 -44 -92 -44 -185 0 -88 3 -102 32 -165 18
-37 55 -96 82 -130 58 -72 1166 -1178 1228 -1224 22 -18 72 -47 110 -65 62
-29 77 -32 163 -32 86 0 101 3 163 32 38 18 88 47 110 65 62 46 1170 1152
1228 1224 27 34 64 93 82 130 29 63 32 78 32 164 0 86 -3 101 -32 163 -18 38
-47 88 -65 110 -46 62 -1152 1170 -1224 1228 -96 77 -181 112 -279 116 -48 2
-96 -2 -120 -10z"/>
<path d="M14895 16607 c-65 -22 -126 -56 -190 -108 -33 -26 -324 -312 -646
-636 -583 -586 -585 -588 -630 -677 -43 -86 -44 -91 -44 -185 0 -88 3 -102 32
-165 18 -37 55 -96 82 -130 58 -72 1166 -1178 1228 -1224 22 -18 72 -47 110
-65 62 -29 77 -32 163 -32 86 0 101 3 163 32 38 18 88 47 110 65 62 46 1170
1152 1228 1224 27 34 64 93 82 130 29 63 32 78 32 164 0 86 -3 101 -32 163
-18 38 -47 88 -65 110 -46 62 -1152 1170 -1224 1228 -96 77 -181 112 -279 116
-48 2 -96 -2 -120 -10z"/>
<path d="M19895 16607 c-65 -22 -126 -56 -190 -108 -71 -56 -1177 -1165 -1223
-1226 -18 -22 -47 -72 -65 -110 -29 -62 -32 -77 -32 -163 0 -86 3 -101 32
-164 18 -37 55 -96 82 -130 58 -72 1166 -1178 1228 -1224 22 -18 72 -47 110
-65 62 -29 77 -32 163 -32 86 0 101 3 163 32 38 18 88 47 110 65 62 46 1170
1152 1228 1224 27 34 64 93 82 130 29 63 32 78 32 164 0 86 -3 101 -32 163
-18 38 -47 88 -65 110 -46 62 -1152 1170 -1224 1228 -96 77 -181 112 -279 116
-48 2 -96 -2 -120 -10z"/>
<path d="M24895 16607 c-65 -22 -126 -56 -190 -108 -71 -56 -1177 -1165 -1223
-1226 -18 -22 -47 -72 -65 -110 -29 -62 -32 -77 -32 -163 0 -86 3 -101 32
-164 18 -37 55 -96 82 -130 58 -72 1166 -1178 1228 -1224 22 -18 72 -47 110
-65 62 -29 77 -32 163 -32 86 0 101 3 163 32 38 18 88 47 110 65 62 46 1170
1152 1228 1224 27 34 64 93 82 130 29 63 32 78 32 164 0 86 -3 101 -32 163
-18 38 -47 88 -65 110 -46 62 -1152 1170 -1224 1228 -96 77 -181 112 -279 116
-48 2 -96 -2 -120 -10z"/>
<path d="M29895 16607 c-65 -22 -126 -56 -190 -108 -71 -56 -1177 -1165 -1223
-1226 -18 -22 -47 -72 -65 -110 -29 -62 -32 -77 -32 -163 0 -86 3 -101 32
-164 18 -37 55 -96 82 -130 58 -72 1166 -1178 1228 -1224 22 -18 72 -47 110
-65 62 -29 77 -32 163 -32 86 0 101 3 163 32 38 18 88 47 110 65 62 46 1170
1152 1228 1224 27 34 64 93 82 130 29 63 32 78 32 164 0 86 -3 101 -32 163
-18 38 -47 88 -65 110 -46 62 -1152 1170 -1224 1228 -96 77 -181 112 -279 116
-48 2 -96 -2 -120 -10z"/>
<path d="M34895 16607 c-65 -22 -126 -56 -190 -108 -71 -56 -1177 -1165 -1223
-1226 -18 -22 -47 -72 -65 -110 -29 -62 -32 -77 -32 -163 0 -86 3 -101 32
-164 18 -37 55 -96 82 -130 58 -72 1166 -1178 1228 -1224 22 -18 72 -47 110
-65 62 -29 77 -32 163 -32 86 0 101 3 163 32 38 18 88 47 110 65 62 46 1170
1152 1228 1224 27 34 64 93 82 130 29 63 32 78 32 164 0 86 -3 101 -32 163
-18 38 -47 88 -65 110 -46 62 -1152 1170 -1224 1228 -96 77 -181 112 -279 116
-48 2 -96 -2 -120 -10z"/>
<path d="M39895 16607 c-65 -22 -126 -56 -190 -108 -71 -56 -1177 -1165 -1223
-1226 -18 -22 -47 -72 -65 -110 -29 -62 -32 -77 -32 -163 0 -86 3 -101 32
-164 18 -37 55 -96 82 -130 58 -72 1166 -1178 1228 -1224 22 -18 72 -47 110
-65 62 -29 77 -32 163 -32 86 0 101 3 163 32 38 18 88 47 110 65 62 46 1170
1152 1228 1224 27 34 64 93 82 130 29 63 32 78 32 164 0 86 -3 101 -32 163
-18 38 -47 88 -65 110 -46 62 -1152 1170 -1224 1228 -96 77 -181 112 -279 116
-48 2 -96 -2 -120 -10z"/>
<path d="M44895 16607 c-65 -22 -126 -56 -190 -108 -71 -56 -1177 -1165 -1223
-1226 -18 -22 -47 -72 -65 -110 -29 -62 -32 -77 -32 -163 0 -86 3 -101 32
-164 18 -37 55 -96 82 -130 58 -72 1166 -1178 1228 -1224 22 -18 72 -47 110
-65 62 -29 77 -32 163 -32 86 0 101 3 163 32 38 18 88 47 110 65 62 46 1170
1152 1228 1224 27 34 64 93 82 130 29 63 32 78 32 164 0 86 -3 101 -32 163
-18 38 -47 88 -65 110 -46 62 -1152 1170 -1224 1228 -96 77 -181 112 -279 116
-48 2 -96 -2 -120 -10z"/>
<path d="M49895 16606 c-63 -20 -125 -55 -190 -107 -71 -56 -1177 -1165 -1223
-1226 -18 -22 -47 -72 -65 -110 -29 -62 -32 -77 -32 -163 0 -86 3 -101 32
-164 18 -37 55 -96 82 -130 58 -72 1166 -1178 1228 -1224 59 -46 162 -92 222
-99 l51 -6 0 1622 0 1621 -32 -1 c-18 0 -51 -6 -73 -13z"/>
<path d="M2388 14021 c-32 -10 -81 -34 -110 -52 -64 -39 -1147 -1114 -1219
-1209 -119 -158 -129 -323 -27 -483 47 -73 1104 -1139 1208 -1218 158 -119
323 -129 483 -27 73 47 1139 1104 1218 1208 119 158 129 323 27 483 -47 73
-1104 1139 -1208 1218 -119 90 -254 119 -372 80z"/>
<path d="M7388 14021 c-32 -10 -81 -34 -110 -52 -64 -39 -1147 -1114 -1219
-1209 -119 -158 -129 -323 -27 -483 47 -73 1104 -1139 1208 -1218 158 -119
323 -129 483 -27 73 47 1139 1104 1218 1208 119 158 129 323 27 483 -47 73
-1104 1139 -1208 1218 -119 90 -254 119 -372 80z"/>
<path d="M12388 14021 c-32 -10 -81 -34 -110 -52 -64 -39 -1147 -1114 -1219
-1209 -119 -158 -129 -323 -27 -483 47 -73 1104 -1139 1208 -1218 158 -119
323 -129 483 -27 73 47 1139 1104 1218 1208 119 158 129 323 27 483 -47 73
-1104 1139 -1208 1218 -119 90 -254 119 -372 80z"/>
<path d="M17388 14021 c-32 -10 -81 -34 -110 -52 -64 -39 -1147 -1114 -1219
-1209 -119 -158 -129 -323 -27 -483 47 -73 1104 -1139 1208 -1218 158 -119
323 -129 483 -27 73 47 1139 1104 1218 1208 119 158 129 323 27 483 -47 73
-1104 1139 -1208 1218 -119 90 -254 119 -372 80z"/>
<path d="M22388 14021 c-32 -10 -81 -34 -110 -52 -64 -39 -1147 -1114 -1219
-1209 -119 -158 -129 -323 -27 -483 47 -73 1104 -1139 1208 -1218 158 -119
323 -129 483 -27 73 47 1139 1104 1218 1208 119 158 129 323 27 483 -47 73
-1104 1139 -1208 1218 -119 90 -254 119 -372 80z"/>
<path d="M27388 14021 c-32 -10 -81 -34 -110 -52 -64 -39 -1147 -1114 -1219
-1209 -119 -158 -129 -323 -27 -483 47 -73 1104 -1139 1208 -1218 158 -119
323 -129 483 -27 73 47 1139 1104 1218 1208 119 158 129 323 27 483 -47 73
-1104 1139 -1208 1218 -119 90 -254 119 -372 80z"/>
<path d="M32388 14021 c-32 -10 -81 -34 -110 -52 -64 -39 -1147 -1114 -1219
-1209 -119 -158 -129 -323 -27 -483 47 -73 1104 -1139 1208 -1218 158 -119
323 -129 483 -27 73 47 1139 1104 1218 1208 119 158 129 323 27 483 -47 73
-1104 1139 -1208 1218 -119 90 -254 119 -372 80z"/>
<path d="M37388 14021 c-32 -10 -81 -34 -110 -52 -64 -39 -1147 -1114 -1219
-1209 -119 -158 -129 -323 -27 -483 47 -73 1104 -1139 1208 -1218 158 -119
323 -129 483 -27 73 47 1139 1104 1218 1208 119 158 129 323 27 483 -47 73
-1104 1139 -1208 1218 -119 90 -254 119 -372 80z"/>
<path d="M42388 14021 c-32 -10 -81 -34 -110 -52 -64 -39 -1147 -1114 -1219
-1209 -119 -158 -129 -323 -27 -483 47 -73 1104 -1139 1208 -1218 158 -119
323 -129 483 -27 73 47 1139 1104 1218 1208 119 158 129 323 27 483 -47 73
-1104 1139 -1208 1218 -119 90 -254 119 -372 80z"/>
<path d="M47388 14021 c-32 -10 -81 -34 -110 -52 -64 -39 -1147 -1114 -1219
-1209 -119 -158 -129 -323 -27 -483 47 -73 1104 -1139 1208 -1218 158 -119
323 -129 483 -27 73 47 1139 1104 1218 1208 119 158 129 323 27 483 -47 73
-1104 1139 -1208 1218 -119 90 -254 119 -372 80z"/>
<path d="M0 10000 l0 -1803 57 7 c63 7 155 46 230 97 53 36 1258 1231 1360
1349 37 42 82 111 106 159 41 83 42 86 42 191 0 105 -1 108 -42 191 -24 48
-69 117 -106 159 -102 118 -1307 1313 -1360 1349 -75 51 -167 90 -229 97 l-58
7 0 -1803z"/>
<path d="M4896 11790 c-65 -17 -172 -79 -248 -145 -117 -101 -1312 -1305
-1347 -1358 -18 -26 -47 -78 -64 -115 -30 -62 -32 -75 -32 -173 0 -104 1 -107
42 -190 24 -48 69 -117 106 -159 102 -118 1307 -1313 1360 -1349 26 -18 78
-47 115 -64 62 -30 75 -32 172 -32 97 0 110 2 172 32 37 17 89 46 115 64 53
36 1258 1231 1360 1349 37 42 82 111 106 159 41 83 42 86 42 191 0 105 -1 108
-42 191 -24 48 -69 117 -106 159 -102 118 -1307 1313 -1360 1349 -99 67 -171
93 -265 97 -48 2 -104 -1 -126 -6z"/>
<path d="M9896 11790 c-65 -17 -172 -79 -248 -145 -117 -101 -1312 -1305
-1347 -1358 -18 -26 -47 -78 -64 -115 -30 -62 -32 -75 -32 -173 0 -104 1 -107
42 -190 24 -48 69 -117 106 -159 102 -118 1307 -1313 1360 -1349 26 -18 78
-47 115 -64 62 -30 75 -32 172 -32 97 0 110 2 172 32 37 17 89 46 115 64 53
36 1258 1231 1360 1349 37 42 82 111 106 159 41 83 42 86 42 191 0 105 -1 108
-42 191 -24 48 -69 117 -106 159 -102 118 -1307 1313 -1360 1349 -99 67 -171
93 -265 97 -48 2 -104 -1 -126 -6z"/>
<path d="M14896 11790 c-65 -17 -172 -79 -248 -145 -117 -101 -1312 -1305
-1347 -1358 -18 -26 -47 -78 -64 -115 -30 -62 -32 -75 -32 -173 0 -104 1 -107
42 -190 24 -48 69 -117 106 -159 102 -118 1307 -1313 1360 -1349 26 -18 78
-47 115 -64 62 -30 75 -32 172 -32 97 0 110 2 172 32 37 17 89 46 115 64 53
36 1258 1231 1360 1349 37 42 82 111 106 159 41 83 42 86 42 191 0 105 -1 108
-42 191 -24 48 -69 117 -106 159 -102 118 -1307 1313 -1360 1349 -99 67 -171
93 -265 97 -48 2 -104 -1 -126 -6z"/>
<path d="M19896 11790 c-65 -17 -172 -79 -248 -145 -117 -101 -1312 -1305
-1347 -1358 -18 -26 -47 -78 -64 -115 -30 -62 -32 -75 -32 -173 0 -104 1 -107
42 -190 24 -48 69 -117 106 -159 102 -118 1307 -1313 1360 -1349 26 -18 78
-47 115 -64 62 -30 75 -32 172 -32 97 0 110 2 172 32 37 17 89 46 115 64 53
36 1258 1231 1360 1349 37 42 82 111 106 159 41 83 42 86 42 191 0 105 -1 108
-42 191 -24 48 -69 117 -106 159 -102 118 -1307 1313 -1360 1349 -99 67 -171
93 -265 97 -48 2 -104 -1 -126 -6z"/>
<path d="M24898 11790 c-56 -14 -145 -62 -213 -113 -80 -61 -1343 -1329 -1384
-1390 -18 -26 -47 -78 -64 -115 -30 -62 -32 -75 -32 -173 0 -104 1 -107 42
-190 24 -48 69 -117 106 -159 102 -118 1307 -1313 1360 -1349 26 -18 78 -47
115 -64 62 -30 75 -32 172 -32 97 0 110 2 172 32 37 17 89 46 115 64 53 36
1258 1231 1360 1349 37 42 82 111 106 159 41 83 42 86 42 191 0 105 -1 108
-42 191 -24 48 -69 117 -106 159 -102 118 -1307 1313 -1360 1349 -99 67 -171
93 -265 97 -48 2 -104 -1 -124 -6z"/>
<path d="M29896 11790 c-65 -17 -172 -79 -248 -145 -117 -101 -1312 -1305
-1347 -1358 -18 -26 -47 -78 -64 -115 -30 -62 -32 -75 -32 -173 0 -104 1 -107
42 -190 24 -48 69 -117 106 -159 102 -118 1307 -1313 1360 -1349 26 -18 78
-47 115 -64 62 -30 75 -32 172 -32 97 0 110 2 172 32 37 17 89 46 115 64 53
36 1258 1231 1360 1349 37 42 82 111 106 159 41 83 42 86 42 191 0 105 -1 108
-42 191 -24 48 -69 117 -106 159 -102 118 -1307 1313 -1360 1349 -99 67 -171
93 -265 97 -48 2 -104 -1 -126 -6z"/>
<path d="M34898 11790 c-56 -14 -145 -62 -213 -113 -80 -61 -1343 -1329 -1384
-1390 -18 -26 -47 -78 -64 -115 -30 -62 -32 -75 -32 -173 0 -104 1 -107 42
-190 24 -48 69 -117 106 -159 102 -118 1307 -1313 1360 -1349 26 -18 78 -47
115 -64 62 -30 75 -32 172 -32 97 0 110 2 172 32 37 17 89 46 115 64 53 36
1258 1231 1360 1349 37 42 82 111 106 159 41 83 42 86 42 191 0 105 -1 108
-42 191 -24 48 -69 117 -106 159 -102 118 -1307 1313 -1360 1349 -99 67 -171
93 -265 97 -48 2 -104 -1 -124 -6z"/>
<path d="M39896 11790 c-65 -17 -172 -79 -248 -145 -117 -101 -1312 -1305
-1347 -1358 -18 -26 -47 -78 -64 -115 -30 -62 -32 -75 -32 -173 0 -104 1 -107
42 -190 24 -48 69 -117 106 -159 102 -118 1307 -1313 1360 -1349 26 -18 78
-47 115 -64 62 -30 75 -32 172 -32 97 0 110 2 172 32 37 17 89 46 115 64 53
36 1258 1231 1360 1349 37 42 82 111 106 159 41 83 42 86 42 191 0 105 -1 108
-42 191 -24 48 -69 117 -106 159 -102 118 -1307 1313 -1360 1349 -99 67 -171
93 -265 97 -48 2 -104 -1 -126 -6z"/>
<path d="M44898 11790 c-56 -14 -145 -62 -213 -113 -80 -61 -1343 -1329 -1384
-1390 -18 -26 -47 -78 -64 -115 -30 -62 -32 -75 -32 -173 0 -104 1 -107 42
-190 24 -48 69 -117 106 -159 102 -118 1307 -1313 1360 -1349 26 -18 78 -47
115 -64 62 -30 75 -32 172 -32 97 0 110 2 172 32 37 17 89 46 115 64 53 36
1258 1231 1360 1349 37 42 82 111 106 159 41 83 42 86 42 191 0 105 -1 108
-42 191 -24 48 -69 117 -106 159 -102 118 -1307 1313 -1360 1349 -99 67 -171
93 -265 97 -48 2 -104 -1 -124 -6z"/>
<path d="M49896 11789 c-64 -15 -171 -77 -248 -144 -117 -101 -1312 -1305
-1347 -1358 -18 -26 -47 -78 -64 -115 -30 -62 -32 -75 -32 -173 0 -104 1 -107
42 -190 24 -48 69 -117 106 -159 102 -118 1307 -1313 1360 -1349 75 -51 167
-90 230 -97 l57 -7 0 1802 0 1801 -32 -1 c-18 -1 -50 -5 -72 -10z"/>
<path d="M2374 9182 c-123 -43 -149 -67 -792 -707 -343 -341 -644 -647 -669
-680 -74 -97 -106 -175 -111 -270 -3 -57 1 -99 12 -136 37 -128 55 -148 711
-807 341 -343 647 -644 680 -669 96 -73 172 -104 268 -110 60 -4 98 -1 138 10
128 38 148 56 807 712 343 341 644 647 669 680 74 97 106 175 111 270 3 57 -1
99 -12 136 -37 128 -55 148 -711 807 -341 343 -647 644 -680 669 -33 25 -89
60 -125 77 -84 39 -214 47 -296 18z"/>
<path d="M7374 9182 c-121 -42 -148 -66 -792 -707 -343 -341 -644 -647 -669
-680 -73 -96 -104 -172 -110 -268 -4 -60 -1 -98 10 -138 38 -128 56 -148 712
-807 341 -343 647 -644 680 -669 33 -25 89 -60 125 -77 60 -29 73 -31 170 -31
97 0 110 2 170 31 36 17 92 52 125 77 33 25 339 326 680 669 656 659 674 679
711 807 11 37 15 79 12 136 -5 95 -37 173 -111 270 -25 33 -326 339 -669 680
-460 458 -638 629 -682 655 -87 51 -150 69 -236 69 -46 0 -95 -7 -126 -17z"/>
<path d="M12374 9182 c-123 -43 -149 -67 -792 -707 -343 -341 -644 -647 -669
-680 -74 -97 -106 -175 -111 -270 -3 -57 1 -99 12 -136 37 -128 55 -148 711
-807 341 -343 647 -644 680 -669 96 -73 172 -104 268 -110 60 -4 98 -1 138 10
128 38 148 56 807 712 343 341 644 647 669 680 74 97 106 175 111 270 3 57 -1
99 -12 136 -37 128 -55 148 -711 807 -341 343 -647 644 -680 669 -33 25 -89
60 -125 77 -84 39 -214 47 -296 18z"/>
<path d="M17374 9182 c-121 -42 -148 -66 -792 -707 -343 -341 -644 -647 -669
-680 -73 -96 -104 -172 -110 -268 -4 -60 -1 -98 10 -138 38 -128 56 -148 712
-807 341 -343 647 -644 680 -669 33 -25 89 -60 125 -77 60 -29 73 -31 170 -31
97 0 110 2 170 31 36 17 92 52 125 77 33 25 339 326 680 669 498 500 628 636
658 688 103 178 88 349 -46 525 -25 33 -326 339 -669 680 -644 641 -667 662
-791 705 -72 25 -183 26 -253 2z"/>
<path d="M22371 9180 c-123 -44 -148 -67 -789 -705 -343 -341 -644 -647 -669
-680 -74 -97 -106 -175 -111 -270 -3 -57 1 -99 12 -136 37 -128 55 -148 711
-807 341 -343 647 -644 680 -669 33 -25 89 -60 125 -77 60 -29 73 -31 170 -31
97 0 110 2 170 31 36 17 92 52 125 77 33 25 339 326 680 669 656 659 674 679
712 807 11 40 14 78 10 138 -6 96 -37 172 -110 268 -25 33 -326 339 -669 680
-644 641 -671 665 -792 707 -70 24 -185 23 -255 -2z"/>
<path d="M27374 9182 c-121 -42 -148 -66 -792 -707 -343 -341 -644 -647 -669
-680 -73 -96 -104 -172 -110 -268 -4 -60 -1 -98 10 -138 38 -128 56 -148 712
-807 341 -343 647 -644 680 -669 33 -25 89 -60 125 -77 60 -29 73 -31 170 -31
97 0 110 2 170 31 36 17 92 52 125 77 33 25 339 326 680 669 498 500 628 636
658 688 103 178 88 349 -46 525 -25 33 -326 339 -669 680 -644 641 -667 662
-791 705 -72 25 -183 26 -253 2z"/>
<path d="M32371 9180 c-123 -44 -148 -67 -789 -705 -343 -341 -644 -647 -669
-680 -74 -97 -106 -175 -111 -270 -3 -57 1 -99 12 -136 37 -128 55 -148 711
-807 341 -343 647 -644 680 -669 33 -25 89 -60 125 -77 60 -29 73 -31 170 -31
97 0 110 2 170 31 36 17 92 52 125 77 33 25 339 326 680 669 656 659 674 679
712 807 11 40 14 78 10 138 -6 96 -37 172 -110 268 -25 33 -326 339 -669 680
-644 641 -671 665 -792 707 -70 24 -185 23 -255 -2z"/>
<path d="M37374 9182 c-121 -42 -148 -66 -792 -707 -343 -341 -644 -647 -669
-680 -73 -96 -104 -172 -110 -268 -4 -60 -1 -98 10 -138 38 -128 56 -148 712
-807 341 -343 647 -644 680 -669 33 -25 89 -60 125 -77 60 -29 73 -31 170 -31
97 0 110 2 170 31 36 17 92 52 125 77 33 25 339 326 680 669 498 500 628 636
658 688 103 178 88 349 -46 525 -25 33 -326 339 -669 680 -644 641 -667 662
-791 705 -72 25 -183 26 -253 2z"/>
<path d="M42371 9180 c-123 -44 -148 -67 -789 -705 -343 -341 -644 -647 -669
-680 -74 -97 -106 -175 -111 -270 -3 -57 1 -99 12 -136 37 -128 55 -148 711
-807 341 -343 647 -644 680 -669 33 -25 89 -60 125 -77 60 -29 73 -31 170 -31
97 0 110 2 170 31 36 17 92 52 125 77 33 25 339 326 680 669 656 659 674 679
712 807 11 40 14 78 10 138 -6 96 -37 172 -110 268 -25 33 -326 339 -669 680
-644 641 -671 665 -792 707 -70 24 -185 23 -255 -2z"/>
<path d="M47374 9182 c-121 -42 -148 -66 -792 -707 -343 -341 -644 -647 -669
-680 -73 -96 -104 -172 -110 -268 -4 -60 -1 -98 10 -138 38 -128 56 -148 712
-807 341 -343 647 -644 680 -669 33 -25 89 -60 125 -77 60 -29 73 -31 170 -31
97 0 110 2 170 31 36 17 92 52 125 77 33 25 339 326 680 669 498 500 628 636
658 688 103 178 88 349 -46 525 -25 33 -326 339 -669 680 -644 641 -667 662
-791 705 -72 25 -183 26 -253 2z"/>
<path d="M0 5000 l0 -1980 33 0 c86 0 218 60 328 148 96 77 1455 1441 1501
1507 166 234 156 454 -30 686 -77 96 -1441 1455 -1507 1501 -95 68 -220 118
-292 118 l-33 0 0 -1980z"/>
<path d="M4883 6965 c-64 -18 -141 -56 -208 -103 -66 -46 -1430 -1405 -1507
-1501 -141 -175 -180 -337 -123 -508 50 -149 66 -167 819 -922 385 -387 734
-730 775 -763 245 -197 477 -197 722 0 96 77 1455 1441 1501 1507 166 234 156
454 -30 686 -77 96 -1441 1455 -1507 1501 -149 105 -301 141 -442 103z"/>
<path d="M9870 6961 c-84 -27 -150 -64 -231 -129 -96 -77 -1455 -1441 -1501
-1507 -115 -163 -145 -315 -93 -472 50 -149 66 -167 819 -922 385 -387 734
-730 775 -763 246 -198 476 -198 722 0 96 77 1455 1441 1501 1507 166 234 156
454 -30 686 -77 96 -1441 1455 -1507 1501 -153 109 -316 144 -455 99z"/>
<path d="M14883 6965 c-64 -18 -141 -56 -208 -103 -66 -46 -1430 -1405 -1507
-1501 -141 -175 -180 -337 -123 -508 50 -149 66 -167 819 -922 385 -387 734
-730 775 -763 245 -197 477 -197 722 0 96 77 1455 1441 1501 1507 147 207 155
394 27 613 -25 42 -226 250 -744 771 -390 392 -743 740 -784 773 -162 130
-323 175 -478 133z"/>
<path d="M19870 6961 c-84 -27 -150 -64 -231 -129 -96 -77 -1455 -1441 -1501
-1507 -77 -108 -118 -222 -118 -325 0 -103 41 -217 118 -325 46 -66 1405
-1430 1501 -1507 246 -198 476 -198 722 0 96 77 1455 1441 1501 1507 147 207
155 394 27 613 -25 42 -226 250 -744 771 -390 392 -743 740 -784 773 -166 133
-338 179 -491 129z"/>
<path d="M24883 6965 c-60 -16 -137 -53 -203 -98 -59 -39 -1434 -1409 -1512
-1506 -186 -232 -196 -452 -30 -686 46 -66 1405 -1430 1501 -1507 245 -197
477 -197 722 0 96 77 1455 1441 1501 1507 147 207 155 394 27 613 -25 42 -226
250 -744 771 -390 392 -743 740 -784 773 -162 130 -323 175 -478 133z"/>
<path d="M29870 6961 c-84 -27 -150 -64 -231 -129 -96 -77 -1455 -1441 -1501
-1507 -77 -108 -118 -222 -118 -325 0 -103 41 -217 118 -325 46 -66 1405
-1430 1501 -1507 246 -198 476 -198 722 0 96 77 1455 1441 1501 1507 147 207
155 394 27 613 -25 42 -226 250 -744 771 -390 392 -743 740 -784 773 -166 133
-338 179 -491 129z"/>
<path d="M34883 6965 c-60 -16 -137 -53 -203 -98 -59 -39 -1434 -1409 -1512
-1506 -186 -232 -196 -452 -30 -686 46 -66 1405 -1430 1501 -1507 245 -197
477 -197 722 0 96 77 1455 1441 1501 1507 147 207 155 394 27 613 -25 42 -226
250 -744 771 -390 392 -743 740 -784 773 -162 130 -323 175 -478 133z"/>
<path d="M39870 6961 c-84 -27 -150 -64 -231 -129 -96 -77 -1455 -1441 -1501
-1507 -77 -108 -118 -222 -118 -325 0 -103 41 -217 118 -325 46 -66 1405
-1430 1501 -1507 246 -198 476 -198 722 0 96 77 1455 1441 1501 1507 147 207
155 394 27 613 -25 42 -226 250 -744 771 -390 392 -743 740 -784 773 -166 133
-338 179 -491 129z"/>
<path d="M44883 6965 c-60 -16 -137 -53 -203 -98 -59 -39 -1434 -1409 -1512
-1506 -186 -232 -196 -452 -30 -686 46 -66 1405 -1430 1501 -1507 245 -197
477 -197 722 0 96 77 1455 1441 1501 1507 147 207 155 394 27 613 -25 42 -226
250 -744 771 -390 392 -743 740 -784 773 -162 130 -323 175 -478 133z"/>
<path d="M49870 6961 c-84 -27 -150 -64 -231 -129 -96 -77 -1455 -1441 -1501
-1507 -77 -108 -118 -222 -118 -325 0 -103 41 -217 118 -325 46 -66 1405
-1430 1501 -1507 110 -88 242 -148 328 -148 l33 0 0 1980 0 1980 -37 -1 c-21
0 -63 -8 -93 -18z"/>
<path d="M2430 4359 c-80 -13 -204 -78 -290 -152 -118 -102 -1364 -1357 -1399
-1410 -138 -205 -138 -389 0 -594 35 -53 1281 -1308 1399 -1410 137 -118 288
-173 422 -152 88 13 209 75 298 152 118 102 1364 1357 1399 1410 138 204 138
390 0 594 -35 53 -1280 1307 -1397 1408 -144 125 -288 176 -432 154z"/>
<path d="M7436 4359 c-65 -9 -158 -50 -233 -100 -53 -35 -1307 -1280 -1408
-1397 -191 -221 -208 -430 -54 -659 35 -53 1281 -1308 1399 -1410 89 -77 210
-139 298 -152 134 -21 285 34 422 152 118 102 1364 1357 1399 1410 138 205
138 389 0 594 -35 53 -1280 1307 -1397 1408 -144 124 -283 174 -426 154z"/>
<path d="M12430 4359 c-80 -13 -204 -78 -290 -152 -118 -102 -1364 -1357
-1399 -1410 -138 -205 -138 -389 0 -594 35 -53 1281 -1308 1399 -1410 137
-118 288 -173 423 -152 87 13 208 75 297 152 118 102 1364 1357 1399 1410 138
204 138 390 0 594 -35 53 -1280 1307 -1397 1408 -144 125 -288 176 -432 154z"/>
<path d="M17435 4359 c-84 -12 -205 -75 -295 -152 -118 -102 -1364 -1357
-1399 -1410 -138 -204 -138 -390 0 -594 35 -53 1281 -1308 1399 -1410 137
-118 288 -173 423 -152 87 13 208 75 297 152 118 102 1364 1357 1399 1410 138
205 138 389 0 594 -35 53 -1280 1307 -1397 1408 -144 124 -282 174 -427 154z"/>
<path d="M22430 4359 c-80 -13 -204 -78 -290 -152 -118 -102 -1364 -1357
-1399 -1410 -138 -205 -138 -389 0 -594 35 -53 1281 -1308 1399 -1410 137
-118 288 -173 423 -152 87 13 208 75 297 152 118 102 1364 1357 1399 1410 138
205 138 389 0 594 -35 53 -1280 1307 -1397 1408 -144 125 -288 176 -432 154z"/>
<path d="M27435 4359 c-84 -12 -205 -75 -295 -152 -118 -102 -1364 -1357
-1399 -1410 -138 -204 -138 -390 0 -594 35 -53 1281 -1308 1399 -1410 137
-118 288 -173 423 -152 87 13 208 75 297 152 118 102 1364 1357 1399 1410 138
205 138 389 0 594 -35 53 -1280 1307 -1397 1408 -144 124 -282 174 -427 154z"/>
<path d="M32430 4359 c-80 -13 -204 -78 -290 -152 -118 -102 -1364 -1357
-1399 -1410 -138 -205 -138 -389 0 -594 35 -53 1281 -1308 1399 -1410 137
-118 288 -173 423 -152 87 13 208 75 297 152 118 102 1364 1357 1399 1410 138
205 138 389 0 594 -35 53 -1280 1307 -1397 1408 -144 125 -288 176 -432 154z"/>
<path d="M37435 4359 c-84 -12 -205 -75 -295 -152 -118 -102 -1364 -1357
-1399 -1410 -138 -204 -138 -390 0 -594 35 -53 1281 -1308 1399 -1410 137
-118 288 -173 423 -152 87 13 208 75 297 152 118 102 1364 1357 1399 1410 138
205 138 389 0 594 -35 53 -1280 1307 -1397 1408 -144 124 -282 174 -427 154z"/>
<path d="M42430 4359 c-80 -13 -204 -78 -290 -152 -118 -102 -1364 -1357
-1399 -1410 -138 -205 -138 -389 0 -594 35 -53 1281 -1308 1399 -1410 137
-118 288 -173 423 -152 87 13 208 75 297 152 118 102 1364 1357 1399 1410 84
124 118 247 100 360 -11 68 -50 160 -100 234 -35 53 -1280 1307 -1397 1408
-144 125 -288 176 -432 154z"/>
<path d="M47435 4359 c-84 -12 -205 -75 -295 -152 -118 -102 -1364 -1357
-1399 -1410 -138 -204 -138 -390 0 -594 35 -53 1281 -1308 1399 -1410 89 -77
210 -139 298 -152 134 -21 285 34 422 152 118 102 1364 1357 1399 1410 84 124
118 247 100 360 -11 68 -50 160 -100 234 -35 53 -1280 1307 -1397 1408 -144
124 -282 174 -427 154z"/>
<path d="M0 1080 l0 -1080 1080 0 1080 0 0 33 c0 95 -66 243 -159 358 -78 97
-1581 1595 -1646 1641 -103 73 -241 128 -322 128 l-33 0 0 -1080z"/>
<path d="M4873 2145 c-80 -22 -183 -78 -264 -144 -97 -78 -1595 -1581 -1641
-1646 -73 -103 -128 -241 -128 -322 l0 -33 2160 0 2160 0 0 33 c0 95 -66 243
-159 358 -78 97 -1581 1595 -1646 1641 -69 49 -164 95 -232 113 -71 18 -181
18 -250 0z"/>
<path d="M9873 2145 c-80 -22 -183 -78 -264 -144 -97 -78 -1595 -1581 -1641
-1646 -73 -103 -128 -241 -128 -322 l0 -33 2160 0 2160 0 0 33 c0 95 -66 243
-159 358 -78 97 -1581 1595 -1646 1641 -69 49 -164 95 -232 113 -71 18 -181
18 -250 0z"/>
<path d="M14873 2145 c-80 -22 -183 -78 -264 -144 -97 -78 -1595 -1581 -1641
-1646 -73 -103 -128 -241 -128 -322 l0 -33 2160 0 2160 0 0 33 c0 95 -66 244
-159 358 -81 100 -1572 1586 -1642 1637 -162 117 -333 158 -486 117z"/>
<path d="M19873 2145 c-80 -22 -183 -78 -264 -144 -97 -78 -1595 -1581 -1641
-1646 -73 -103 -128 -241 -128 -322 l0 -33 2160 0 2160 0 0 33 c0 95 -66 243
-159 358 -78 97 -1581 1595 -1646 1641 -69 49 -164 95 -232 113 -71 18 -181
18 -250 0z"/>
<path d="M24873 2145 c-80 -22 -183 -78 -264 -144 -97 -78 -1595 -1581 -1641
-1646 -72 -102 -128 -243 -128 -324 l0 -31 2160 0 2160 0 0 33 c0 95 -66 244
-159 358 -81 100 -1572 1586 -1642 1637 -162 117 -333 158 -486 117z"/>
<path d="M29873 2145 c-80 -22 -183 -78 -264 -144 -97 -78 -1595 -1581 -1641
-1646 -73 -103 -128 -241 -128 -322 l0 -33 2160 0 2160 0 0 33 c0 95 -66 243
-159 358 -78 97 -1581 1595 -1646 1641 -69 49 -164 95 -232 113 -71 18 -181
18 -250 0z"/>
<path d="M34873 2145 c-80 -22 -183 -78 -264 -144 -97 -78 -1595 -1581 -1641
-1646 -72 -102 -128 -243 -128 -324 l0 -31 2160 0 2160 0 0 33 c0 95 -66 244
-159 358 -81 100 -1572 1586 -1642 1637 -162 117 -333 158 -486 117z"/>
<path d="M39873 2145 c-80 -22 -183 -78 -264 -144 -97 -78 -1595 -1581 -1641
-1646 -73 -103 -128 -241 -128 -322 l0 -33 2160 0 2160 0 0 33 c0 95 -66 243
-159 358 -78 97 -1581 1595 -1646 1641 -69 49 -164 95 -232 113 -71 18 -181
18 -250 0z"/>
<path d="M44873 2145 c-80 -22 -183 -78 -264 -144 -97 -78 -1595 -1581 -1641
-1646 -72 -102 -128 -243 -128 -324 l0 -31 2160 0 2160 0 0 33 c0 95 -66 244
-159 358 -81 100 -1572 1586 -1642 1637 -162 117 -333 158 -486 117z"/>
<path d="M49873 2145 c-80 -22 -183 -78 -264 -144 -97 -78 -1595 -1581 -1641
-1646 -73 -103 -128 -241 -128 -322 l0 -33 1080 0 1080 0 0 1080 0 1080 -37
-1 c-21 0 -61 -7 -90 -14z"/>
</g>
</svg>
